  0
SECTION
  2
HEADER
  9
$ACADVER
  1
AC1009
  0
ENDSEC
  0
SECTION
  2
TABLES
  0
TABLE
  2
LAYER
  70
1
  0
LAYER
  2
Layer_0
  70
0
  62
7
  6
CONTINUOUS
  0
ENDTAB
  0
ENDSEC
  0
SECTION
  2
ENTITIES
  0
POLYLINE
  5
90
  8
Layer_0
  62
7
  66
1
  10
0
  20
0
  30
0
  0
VERTEX
  5
90
  8
Layer_0
  10
1112.1694
  20
78.000244
  0
VERTEX
  5
91
  8
Layer_0
  10
1088.9565
  20
714.98804
  42
-0.017993738
  0
VERTEX
  5
92
  8
Layer_0
  10
1088.723
  20
1240.4536
  0
VERTEX
  5
93
  8
Layer_0
  10
1113.6752
  20
1610.4736
  0
VERTEX
  5
94
  8
Layer_0
  10
1114.1594
  20
1617.7012
  0
VERTEX
  5
95
  8
Layer_0
  10
1114.6377
  20
1624.9302
  0
VERTEX
  5
96
  8
Layer_0
  10
1115.1096
  20
1632.1606
  0
VERTEX
  5
97
  8
Layer_0
  10
1115.5754
  20
1639.3926
  0
VERTEX
  5
98
  8
Layer_0
  10
1116.0353
  20
1646.625
  0
VERTEX
  5
99
  8
Layer_0
  10
1116.4889
  20
1653.8594
  0
VERTEX
  5
9a
  8
Layer_0
  10
1116.9363
  20
1661.0947
  0
VERTEX
  5
9b
  8
Layer_0
  10
1117.3776
  20
1668.3311
  0
VERTEX
  5
9c
  8
Layer_0
  10
1117.8127
  20
1675.5684
  0
VERTEX
  5
9d
  8
Layer_0
  10
1118.2417
  20
1682.8071
  0
VERTEX
  5
9e
  8
Layer_0
  10
1118.6647
  20
1690.0469
  0
VERTEX
  5
9f
  8
Layer_0
  10
1119.0813
  20
1697.2881
  0
VERTEX
  5
a0
  8
Layer_0
  10
1119.4919
  20
1704.5298
  0
VERTEX
  5
a1
  8
Layer_0
  10
1119.8964
  20
1711.7734
  0
VERTEX
  5
a2
  8
Layer_0
  10
1120.2947
  20
1719.0176
  0
VERTEX
  5
a3
  8
Layer_0
  10
1120.6869
  20
1726.2627
  0
VERTEX
  5
a4
  8
Layer_0
  10
1121.0729
  20
1733.5088
  0
VERTEX
  5
a5
  8
Layer_0
  10
1121.4528
  20
1740.7563
  0
VERTEX
  5
a6
  8
Layer_0
  10
1121.8265
  20
1748.0049
  0
VERTEX
  5
a7
  8
Layer_0
  10
1122.1941
  20
1755.2539
  0
VERTEX
  5
a8
  8
Layer_0
  10
1122.5555
  20
1762.5044
  0
VERTEX
  5
a9
  8
Layer_0
  10
1122.9109
  20
1769.7559
  0
VERTEX
  5
aa
  8
Layer_0
  10
1123.2599
  20
1777.0078
  0
VERTEX
  5
ab
  8
Layer_0
  10
1123.603
  20
1784.2612
  0
VERTEX
  5
ac
  8
Layer_0
  10
1123.9398
  20
1791.5151
  0
VERTEX
  5
ad
  8
Layer_0
  10
1124.2705
  20
1798.7705
  0
VERTEX
  5
ae
  8
Layer_0
  10
1124.5951
  20
1806.0264
  0
VERTEX
  5
af
  8
Layer_0
  10
1124.9137
  20
1813.2832
  0
VERTEX
  5
b0
  8
Layer_0
  10
1125.2258
  20
1820.5405
  0
VERTEX
  5
b1
  8
Layer_0
  10
1125.532
  20
1827.7993
  0
VERTEX
  5
b2
  8
Layer_0
  10
1125.832
  20
1835.0586
  0
VERTEX
  5
b3
  8
Layer_0
  10
1126.1259
  20
1842.3184
  0
VERTEX
  5
b4
  8
Layer_0
  10
1126.4136
  20
1849.5796
  0
VERTEX
  5
b5
  8
Layer_0
  10
1126.6952
  20
1856.8413
  0
VERTEX
  5
b6
  8
Layer_0
  10
1126.9706
  20
1864.1035
  0
VERTEX
  5
b7
  8
Layer_0
  10
1127.2397
  20
1871.3667
  0
VERTEX
  5
b8
  8
Layer_0
  10
1127.5028
  20
1878.6309
  0
VERTEX
  5
b9
  8
Layer_0
  10
1127.7599
  20
1885.8955
  0
VERTEX
  5
ba
  8
Layer_0
  10
1128.0106
  20
1893.1611
  0
VERTEX
  5
bb
  8
Layer_0
  10
1128.2554
  20
1900.4268
  0
VERTEX
  5
bc
  8
Layer_0
  10
1128.4939
  20
1907.6938
  0
VERTEX
  5
bd
  8
Layer_0
  10
1128.7262
  20
1914.9609
  0
VERTEX
  5
be
  8
Layer_0
  10
1128.9524
  20
1922.229
  0
VERTEX
  5
bf
  8
Layer_0
  10
1129.1725
  20
1929.498
  0
VERTEX
  5
c0
  8
Layer_0
  10
1129.3865
  20
1936.7671
  0
VERTEX
  5
c1
  8
Layer_0
  10
1129.5942
  20
1944.0371
  0
VERTEX
  5
c2
  8
Layer_0
  10
1129.7959
  20
1951.3076
  0
VERTEX
  5
c3
  8
Layer_0
  10
1129.9913
  20
1958.5786
  0
VERTEX
  5
c4
  8
Layer_0
  10
1130.1807
  20
1965.8501
  0
VERTEX
  5
c5
  8
Layer_0
  10
1130.3639
  20
1973.1226
  0
VERTEX
  5
c6
  8
Layer_0
  10
1130.5409
  20
1980.395
  0
VERTEX
  5
c7
  8
Layer_0
  10
1130.7118
  20
1987.6685
  0
VERTEX
  5
c8
  8
Layer_0
  10
1130.8766
  20
1994.9419
  0
VERTEX
  5
c9
  8
Layer_0
  10
1131.035
  20
2002.2163
  0
VERTEX
  5
ca
  8
Layer_0
  10
1131.1875
  20
2009.4907
  0
VERTEX
  5
cb
  8
Layer_0
  10
1131.3337
  20
2016.7656
  0
VERTEX
  5
cc
  8
Layer_0
  10
1131.4739
  20
2024.0415
  0
VERTEX
  5
cd
  8
Layer_0
  10
1131.6078
  20
2031.3174
  0
VERTEX
  5
ce
  8
Layer_0
  10
1131.7357
  20
2038.5933
  0
VERTEX
  5
cf
  8
Layer_0
  10
1131.8573
  20
2045.8701
  0
VERTEX
  5
d0
  8
Layer_0
  10
1131.9728
  20
2053.1475
  0
VERTEX
  5
d1
  8
Layer_0
  10
1132.0823
  20
2060.4248
  0
VERTEX
  5
d2
  8
Layer_0
  10
1132.1854
  20
2067.7026
  0
VERTEX
  5
d3
  8
Layer_0
  10
1132.2826
  20
2074.9805
  0
VERTEX
  5
d4
  8
Layer_0
  10
1132.3734
  20
2082.2588
  0
VERTEX
  5
d5
  8
Layer_0
  10
1132.4581
  20
2089.5376
  0
VERTEX
  5
d6
  8
Layer_0
  10
1132.5367
  20
2096.8169
  0
VERTEX
  5
d7
  8
Layer_0
  10
1132.6093
  20
2104.0957
  0
VERTEX
  5
d8
  8
Layer_0
  10
1132.6755
  20
2111.3755
  0
VERTEX
  5
d9
  8
Layer_0
  10
1132.7356
  20
2118.6553
  0
VERTEX
  5
da
  8
Layer_0
  10
1132.7897
  20
2125.9351
  0
VERTEX
  5
db
  8
Layer_0
  10
1132.8374
  20
2133.2153
  0
VERTEX
  5
dc
  8
Layer_0
  10
1132.8792
  20
2140.4956
  0
VERTEX
  5
dd
  8
Layer_0
  10
1132.9147
  20
2147.7759
  0
VERTEX
  5
de
  8
Layer_0
  10
1132.9441
  20
2155.0566
  0
VERTEX
  5
df
  8
Layer_0
  10
1132.9673
  20
2162.3374
  0
VERTEX
  5
e0
  8
Layer_0
  10
1132.9844
  20
2169.6187
  0
VERTEX
  5
e1
  8
Layer_0
  10
1132.9952
  20
2176.8994
  0
VERTEX
  5
e2
  8
Layer_0
  10
1132.9999
  20
2184.1807
  0
VERTEX
  5
e3
  8
Layer_0
  10
1132.9985
  20
2191.4619
  0
VERTEX
  5
e4
  8
Layer_0
  10
1132.9911
  20
2198.7432
  0
VERTEX
  5
e5
  8
Layer_0
  10
1132.9773
  20
2206.0244
  0
VERTEX
  5
e6
  8
Layer_0
  10
1132.9574
  20
2213.3057
  0
VERTEX
  5
e7
  8
Layer_0
  10
1132.9314
  20
2220.5874
  0
VERTEX
  5
e8
  8
Layer_0
  10
1132.8992
  20
2227.8687
  0
VERTEX
  5
e9
  8
Layer_0
  10
1132.8608
  20
2235.1499
  0
VERTEX
  5
ea
  8
Layer_0
  10
1132.8163
  20
2242.4316
  0
VERTEX
  5
eb
  8
Layer_0
  10
1132.7656
  20
2249.7129
  0
VERTEX
  5
ec
  8
Layer_0
  10
1132.7089
  20
2256.9941
  0
VERTEX
  5
ed
  8
Layer_0
  10
1132.6459
  20
2264.2754
  0
VERTEX
  5
ee
  8
Layer_0
  10
1132.5768
  20
2271.5566
  0
VERTEX
  5
ef
  8
Layer_0
  10
1132.5015
  20
2278.8374
  0
VERTEX
  5
f0
  8
Layer_0
  10
1132.42
  20
2286.1182
  0
VERTEX
  5
f1
  8
Layer_0
  10
1132.3324
  20
2293.3989
  0
VERTEX
  5
f2
  8
Layer_0
  10
1132.2386
  20
2300.6797
  0
VERTEX
  5
f3
  8
Layer_0
  10
1132.1388
  20
2307.96
  0
VERTEX
  5
f4
  8
Layer_0
  10
1132.0326
  20
2315.2402
  0
VERTEX
  5
f5
  8
Layer_0
  10
1131.9203
  20
2322.5205
  0
VERTEX
  5
f6
  8
Layer_0
  10
1131.8019
  20
2329.8003
  0
VERTEX
  5
f7
  8
Layer_0
  10
1131.6775
  20
2337.0801
  0
VERTEX
  5
f8
  8
Layer_0
  10
1131.5466
  20
2344.3594
  0
VERTEX
  5
f9
  8
Layer_0
  10
1131.4098
  20
2351.6387
  0
VERTEX
  5
fa
  8
Layer_0
  10
1131.2667
  20
2358.9175
  0
VERTEX
  5
fb
  8
Layer_0
  10
1131.1176
  20
2366.1963
  0
VERTEX
  5
fc
  8
Layer_0
  10
1130.9622
  20
2373.4746
  0
VERTEX
  5
fd
  8
Layer_0
  10
1130.8007
  20
2380.7524
  0
VERTEX
  5
fe
  8
Layer_0
  10
1130.6329
  20
2388.0298
  0
VERTEX
  5
ff
  8
Layer_0
  10
1130.4591
  20
2395.3076
  0
VERTEX
  5
100
  8
Layer_0
  10
1130.2792
  20
2402.5845
  0
VERTEX
  5
101
  8
Layer_0
  10
1130.0929
  20
2409.8608
  0
VERTEX
  5
102
  8
Layer_0
  10
1129.9006
  20
2417.1372
  0
VERTEX
  5
103
  8
Layer_0
  10
1129.7021
  20
2424.4131
  0
VERTEX
  5
104
  8
Layer_0
  10
1129.4974
  20
2431.688
  0
VERTEX
  5
105
  8
Layer_0
  10
1129.2866
  20
2438.9629
  0
VERTEX
  5
106
  8
Layer_0
  10
1129.0696
  20
2446.2378
  0
VERTEX
  5
107
  8
Layer_0
  10
1128.8466
  20
2453.5117
  0
VERTEX
  5
108
  8
Layer_0
  10
1128.6172
  20
2460.7852
  0
VERTEX
  5
109
  8
Layer_0
  10
1128.3817
  20
2468.0581
  0
VERTEX
  5
10a
  8
Layer_0
  10
1128.14
  20
2475.3306
  0
VERTEX
  5
10b
  8
Layer_0
  10
1127.8922
  20
2482.6025
  0
VERTEX
  5
10c
  8
Layer_0
  10
1127.6383
  20
2489.874
  0
VERTEX
  5
10d
  8
Layer_0
  10
1127.3782
  20
2497.145
  0
VERTEX
  5
10e
  8
Layer_0
  10
1127.1119
  20
2504.4155
  0
VERTEX
  5
10f
  8
Layer_0
  10
1126.8395
  20
2511.6851
  0
VERTEX
  5
110
  8
Layer_0
  10
1126.5608
  20
2518.9541
  0
VERTEX
  5
111
  8
Layer_0
  10
1126.276
  20
2526.2227
  0
VERTEX
  5
112
  8
Layer_0
  10
1125.985
  20
2533.4902
  0
VERTEX
  5
113
  8
Layer_0
  10
1125.688
  20
2540.7578
  0
VERTEX
  5
114
  8
Layer_0
  10
1112.1694
  20
2868
  0
SEQEND
  0
ENDSEC
  0
EOF
