  0
SECTION
  2
HEADER
  9
$ACADVER
  1
AC1009
  0
ENDSEC
  0
SECTION
  2
TABLES
  0
TABLE
  2
LAYER
  70
1
  0
LAYER
  2
Layer_0
  70
0
  62
7
  6
CONTINUOUS
  0
ENDTAB
  0
ENDSEC
  0
SECTION
  2
ENTITIES
  0
POLYLINE
  5
90
  8
Layer_0
  62
7
  70
1
  66
1
  10
0
  20
0
  30
0
  0
VERTEX
  5
90
  8
Layer_0
  10
748.5
  20
2425
  0
VERTEX
  5
91
  8
Layer_0
  10
843.13342
  20
2140.9149
  0
VERTEX
  5
92
  8
Layer_0
  10
1131.3003
  20
2134.7871
  0
VERTEX
  5
93
  8
Layer_0
  10
901.62012
  20
1953.0851
  0
VERTEX
  5
94
  8
Layer_0
  10
985.08354
  20
1665.2129
  0
VERTEX
  5
95
  8
Layer_0
  10
748.5
  20
1837
  0
VERTEX
  5
96
  8
Layer_0
  10
511.91638
  20
1665.2129
  0
VERTEX
  5
97
  8
Layer_0
  10
595.37988
  20
1953.0851
  0
VERTEX
  5
98
  8
Layer_0
  10
365.69977
  20
2134.7872
  0
VERTEX
  5
99
  8
Layer_0
  10
653.86664
  20
2140.9149
  0
SEQEND
  0
ENDSEC
  0
EOF
