  0
SECTION
  2
HEADER
  9
$ACADVER
  1
AC1009
  0
ENDSEC
  0
SECTION
  2
TABLES
  0
TABLE
  2
LAYER
  70
3
  0
LAYER
  2
Layer_4
  70
0
  62
52
  6
CONTINUOUS
  0
LAYER
  2
Layer_3
  70
0
  62
3
  6
CONTINUOUS
  0
LAYER
  2
Layer_0
  70
0
  62
7
  6
CONTINUOUS
  0
ENDTAB
  0
ENDSEC
  0
SECTION
  2
ENTITIES
  0
POLYLINE
  5
90
  8
Layer_4
  62
52
  66
1
  10
0
  20
0
  30
0
  0
VERTEX
  5
90
  8
Layer_4
  10
-1220.1875
  20
884.42017
  0
VERTEX
  5
91
  8
Layer_4
  10
-920.1875
  20
683.60205
  0
VERTEX
  5
92
  8
Layer_4
  10
-1520.1875
  20
281.96582
  0
VERTEX
  5
93
  8
Layer_4
  10
-1220.1875
  20
85.264893
  0
VERTEX
  5
94
  8
Layer_4
  10
-920.1875
  20
281.96582
  0
SEQEND
  0
POLYLINE
  5
96
  8
Layer_4
  62
52
  66
1
  10
0
  20
0
  30
0
  0
VERTEX
  5
96
  8
Layer_4
  10
-1520.1875
  20
683.60205
  0
VERTEX
  5
97
  8
Layer_4
  10
-1220.1875
  20
884.42017
  0
VERTEX
  5
98
  8
Layer_4
  10
-1220.1875
  20
1279.4701
  0
SEQEND
  0
POLYLINE
  5
9a
  8
Layer_4
  62
52
  66
1
  10
0
  20
0
  30
0
  0
VERTEX
  5
9a
  8
Layer_4
  10
-920.1875
  20
1881.9244
  0
VERTEX
  5
9b
  8
Layer_4
  10
-1220.1875
  20
2082.7426
  0
VERTEX
  5
9c
  8
Layer_4
  10
-1220.1875
  20
2477.7458
  0
VERTEX
  5
9d
  8
Layer_4
  10
-1520.1875
  20
2678.564
  0
VERTEX
  5
9e
  8
Layer_4
  10
-1220.1875
  20
2875.2649
  0
SEQEND
  0
POLYLINE
  5
a0
  8
Layer_4
  62
52
  66
1
  10
0
  20
0
  30
0
  0
VERTEX
  5
a0
  8
Layer_4
  10
-1520.1875
  20
1480.2882
  0
VERTEX
  5
a1
  8
Layer_4
  10
-1220.1875
  20
1279.4701
  0
VERTEX
  5
a2
  8
Layer_4
  10
-920.1875
  20
1480.2882
  0
VERTEX
  5
a3
  8
Layer_4
  10
-1520.1875
  20
1881.9244
  0
VERTEX
  5
a4
  8
Layer_4
  10
-1220.1875
  20
2082.7426
  0
SEQEND
  0
POLYLINE
  5
a6
  8
Layer_4
  62
52
  66
1
  10
0
  20
0
  30
0
  0
VERTEX
  5
a6
  8
Layer_4
  10
-1220.1875
  20
2477.7458
  0
VERTEX
  5
a7
  8
Layer_4
  10
-920.1875
  20
2678.564
  0
SEQEND
  0
POLYLINE
  5
a9
  8
Layer_3
  62
3
  70
1
  66
1
  10
0
  20
0
  30
0
  0
VERTEX
  5
a9
  8
Layer_3
  10
-920.1875
  20
85.264893
  0
VERTEX
  5
aa
  8
Layer_3
  10
-920.1875
  20
2875.2649
  0
VERTEX
  5
ab
  8
Layer_3
  10
-2120.1875
  20
2875.2649
  0
VERTEX
  5
ac
  8
Layer_3
  10
-2120.1875
  20
85.264893
  0
SEQEND
  0
POLYLINE
  5
ae
  8
Layer_0
  62
7
  70
1
  66
1
  10
0
  20
0
  30
0
  0
VERTEX
  5
ae
  8
Layer_0
  10
-920.1875
  20
85.264893
  0
VERTEX
  5
af
  8
Layer_0
  10
-920.1875
  20
2875.2649
  0
VERTEX
  5
b0
  8
Layer_0
  10
-2120.1875
  20
2875.2649
  0
VERTEX
  5
b1
  8
Layer_0
  10
-2120.1875
  20
85.264893
  0
SEQEND
  0
POLYLINE
  5
b3
  8
Layer_4
  62
52
  66
1
  10
0
  20
0
  30
0
  0
VERTEX
  5
b3
  8
Layer_4
  10
-1820.1865
  20
2076.1094
  0
VERTEX
  5
b4
  8
Layer_4
  10
-1520.1865
  20
2276.9276
  0
VERTEX
  5
b5
  8
Layer_4
  10
-2120.1865
  20
2678.5638
  0
VERTEX
  5
b6
  8
Layer_4
  10
-1820.1865
  20
2875.2646
  0
VERTEX
  5
b7
  8
Layer_4
  10
-1520.1865
  20
2678.5638
  0
SEQEND
  0
POLYLINE
  5
b9
  8
Layer_4
  62
52
  66
1
  10
0
  20
0
  30
0
  0
VERTEX
  5
b9
  8
Layer_4
  10
-2120.1865
  20
2276.9276
  0
VERTEX
  5
ba
  8
Layer_4
  10
-1820.1865
  20
2076.1094
  0
VERTEX
  5
bb
  8
Layer_4
  10
-1820.1865
  20
1681.0594
  0
SEQEND
  0
POLYLINE
  5
bd
  8
Layer_4
  62
52
  66
1
  10
0
  20
0
  30
0
  0
VERTEX
  5
bd
  8
Layer_4
  10
-1520.1865
  20
1078.6051
  0
VERTEX
  5
be
  8
Layer_4
  10
-1820.1865
  20
877.78711
  0
VERTEX
  5
bf
  8
Layer_4
  10
-1820.1865
  20
482.78369
  0
VERTEX
  5
c0
  8
Layer_4
  10
-2120.1865
  20
281.96558
  0
VERTEX
  5
c1
  8
Layer_4
  10
-1820.1865
  20
85.264648
  0
SEQEND
  0
POLYLINE
  5
c3
  8
Layer_4
  62
52
  66
1
  10
0
  20
0
  30
0
  0
VERTEX
  5
c3
  8
Layer_4
  10
-2120.1865
  20
1480.2413
  0
VERTEX
  5
c4
  8
Layer_4
  10
-1820.1865
  20
1681.0594
  0
VERTEX
  5
c5
  8
Layer_4
  10
-1520.1865
  20
1480.2413
  0
VERTEX
  5
c6
  8
Layer_4
  10
-2120.1865
  20
1078.6051
  0
VERTEX
  5
c7
  8
Layer_4
  10
-1820.1865
  20
877.78711
  0
SEQEND
  0
POLYLINE
  5
c9
  8
Layer_4
  62
52
  66
1
  10
0
  20
0
  30
0
  0
VERTEX
  5
c9
  8
Layer_4
  10
-1820.1865
  20
482.78369
  0
VERTEX
  5
ca
  8
Layer_4
  10
-1520.1865
  20
281.96558
  0
SEQEND
  0
POLYLINE
  5
cc
  8
Layer_4
  62
52
  66
1
  10
0
  20
0
  30
0
  0
VERTEX
  5
cc
  8
Layer_4
  10
-1520.1875
  20
2875.2649
  0
VERTEX
  5
cd
  8
Layer_4
  10
-1520.1875
  20
85.264893
  0
SEQEND
  0
ENDSEC
  0
EOF
